<mxfile host="app.diagrams.net" agent="Mozilla/5.0 (Windows NT 10.0; Win64; x64) AppleWebKit/537.36 (KHTML, like Gecko) Chrome/135.0.0.0 Safari/537.36" version="26.2.9">
  <diagram name="Page-1" id="FJppIva3zDqkM5AgGkYk">
    <mxGraphModel>
      <root>
        <mxCell id="0" />
        <mxCell id="1" parent="0" />
        <mxCell id="2" value="UserData" style="whiteSpace=wrap;strokeWidth=2;" vertex="1" parent="1">
          <mxGeometry x="8" y="559" width="250" height="254" as="geometry" />
        </mxCell>
        <mxCell id="3" value="User" style="whiteSpace=wrap;strokeWidth=2;" vertex="1" parent="1">
          <mxGeometry x="367" y="8" width="92" height="54" as="geometry" />
        </mxCell>
        <mxCell id="4" value="User Profile" style="rhombus;strokeWidth=2;whiteSpace=wrap;" vertex="1" parent="1">
          <mxGeometry x="344" y="222" width="138" height="138" as="geometry" />
        </mxCell>
        <mxCell id="5" value="1.1 Manage User Profile" style="whiteSpace=wrap;strokeWidth=2;" vertex="1" parent="1">
          <mxGeometry x="18" y="432" width="229" height="54" as="geometry" />
        </mxCell>
        <mxCell id="6" value="1.2 Log Meals" style="whiteSpace=wrap;strokeWidth=2;" vertex="1" parent="1">
          <mxGeometry x="335" y="432" width="157" height="54" as="geometry" />
        </mxCell>
        <mxCell id="7" value="1.3 Change Diet Type" style="whiteSpace=wrap;strokeWidth=2;" vertex="1" parent="1">
          <mxGeometry x="607" y="432" width="211" height="54" as="geometry" />
        </mxCell>
        <mxCell id="8" value="D1 user_data.txt" style="whiteSpace=wrap;strokeWidth=2;" vertex="1" parent="1">
          <mxGeometry x="43" y="596" width="180" height="54" as="geometry" />
        </mxCell>
        <mxCell id="9" value="1.4 End Day &amp; Save Prog." style="whiteSpace=wrap;strokeWidth=2;" vertex="1" parent="1">
          <mxGeometry x="293" y="596" width="240" height="54" as="geometry" />
        </mxCell>
        <mxCell id="10" value="1.5 Display Weekly Summary" style="whiteSpace=wrap;strokeWidth=2;" vertex="1" parent="1">
          <mxGeometry x="583" y="584" width="260" height="78" as="geometry" />
        </mxCell>
        <mxCell id="11" value="Daily progress" style="whiteSpace=wrap;strokeWidth=2;" vertex="1" parent="1">
          <mxGeometry x="483" y="734" width="160" height="54" as="geometry" />
        </mxCell>
        <mxCell id="12" value="D2 progress.txt" style="whiteSpace=wrap;strokeWidth=2;" vertex="1" parent="1">
          <mxGeometry x="48" y="734" width="169" height="54" as="geometry" />
        </mxCell>
        <mxCell id="13" value="User details, Activity level&#xa;Meal choices, New diet type, Current weight" style="curved=1;startArrow=none;endArrow=block;exitX=0.21;exitY=1;entryX=0.15;entryY=0;" edge="1" parent="1" source="3" target="4">
          <mxGeometry relative="1" as="geometry">
            <Array as="points">
              <mxPoint x="307" y="142" />
            </Array>
          </mxGeometry>
        </mxCell>
        <mxCell id="14" value="User profile" style="curved=1;startArrow=none;endArrow=block;exitX=0;exitY=0.69;entryX=0.5;entryY=0.01;" edge="1" parent="1" source="4" target="5">
          <mxGeometry relative="1" as="geometry">
            <Array as="points">
              <mxPoint x="133" y="396" />
            </Array>
          </mxGeometry>
        </mxCell>
        <mxCell id="15" value="Meals" style="curved=1;startArrow=none;endArrow=block;exitX=0.5;exitY=1;entryX=0.5;entryY=0.01;" edge="1" parent="1" source="4" target="6">
          <mxGeometry relative="1" as="geometry">
            <Array as="points" />
          </mxGeometry>
        </mxCell>
        <mxCell id="16" value="Diet Type" style="curved=1;startArrow=none;endArrow=block;exitX=1;exitY=0.68;entryX=0.5;entryY=0.01;" edge="1" parent="1" source="4" target="7">
          <mxGeometry relative="1" as="geometry">
            <Array as="points">
              <mxPoint x="713" y="396" />
            </Array>
          </mxGeometry>
        </mxCell>
        <mxCell id="17" value="User profile" style="curved=1;startArrow=none;endArrow=block;exitX=0.5;exitY=1.01;entryX=0.5;entryY=-0.01;" edge="1" parent="1" source="5" target="8">
          <mxGeometry relative="1" as="geometry">
            <Array as="points" />
          </mxGeometry>
        </mxCell>
        <mxCell id="18" value="Meals" style="curved=1;startArrow=none;endArrow=block;exitX=0.5;exitY=1.01;entryX=0.5;entryY=-0.01;" edge="1" parent="1" source="6" target="9">
          <mxGeometry relative="1" as="geometry">
            <Array as="points" />
          </mxGeometry>
        </mxCell>
        <mxCell id="19" value="Updated profile" style="curved=1;startArrow=none;endArrow=block;exitX=0.5;exitY=1.01;entryX=0.5;entryY=0;" edge="1" parent="1" source="7" target="10">
          <mxGeometry relative="1" as="geometry">
            <Array as="points" />
          </mxGeometry>
        </mxCell>
        <mxCell id="20" value="Daily progress" style="curved=1;startArrow=none;endArrow=block;exitX=0.5;exitY=0.99;entryX=0.1;entryY=0;" edge="1" parent="1" source="9" target="11">
          <mxGeometry relative="1" as="geometry">
            <Array as="points">
              <mxPoint x="413" y="698" />
            </Array>
          </mxGeometry>
        </mxCell>
        <mxCell id="21" value="Daily summary" style="curved=1;startArrow=none;endArrow=block;exitX=0.5;exitY=1;entryX=0.9;entryY=0;" edge="1" parent="1" source="10" target="11">
          <mxGeometry relative="1" as="geometry">
            <Array as="points">
              <mxPoint x="713" y="698" />
            </Array>
          </mxGeometry>
        </mxCell>
        <mxCell id="22" value="Daily progress" style="curved=1;startArrow=none;endArrow=block;exitX=0.5;exitY=0.99;entryX=0.5;entryY=0;" edge="1" parent="1" source="8" target="12">
          <mxGeometry relative="1" as="geometry">
            <Array as="points" />
          </mxGeometry>
        </mxCell>
        <mxCell id="23" value="Welcome, BMI, Calorie goal, Menu, Remaining calories,&#xa;Diet change confirmation, Daily summary, Weekly summary" style="curved=1;startArrow=none;endArrow=block;exitX=0.79;exitY=1;entryX=0.86;entryY=0;" edge="1" parent="1" source="3" target="4">
          <mxGeometry relative="1" as="geometry">
            <Array as="points">
              <mxPoint x="520" y="142" />
            </Array>
          </mxGeometry>
        </mxCell>
      </root>
    </mxGraphModel>
  </diagram>
</mxfile>
